<svg xmlns="http://www.w3.org/2000/svg" xmlns:xlink="http://www.w3.org/1999/xlink" width="20" height="20" viewBox="0 0 20 20">
  <defs>
    <clipPath id="clip-path">
      <rect id="Rectangle_19123" data-name="Rectangle 19123" width="20" height="20" transform="translate(1020 982)" fill="#515151" stroke="#707070" stroke-width="1"/>
    </clipPath>
  </defs>
  <g id="Mask_Group_15233" data-name="Mask Group 15233" transform="translate(-1020 -982)" clip-path="url(#clip-path)">
    <path id="calendar-day_2_" data-name="calendar-day (2)" d="M6.667,10H5a1.668,1.668,0,0,0-1.667,1.667v1.667A1.668,1.668,0,0,0,5,15H6.667a1.668,1.668,0,0,0,1.667-1.667V11.667A1.668,1.668,0,0,0,6.667,10ZM5,13.333V11.667H6.667v1.667ZM15.833,1.667H15V.833a.833.833,0,0,0-1.667,0v.833H6.667V.833A.833.833,0,1,0,5,.833v.833H4.167A4.171,4.171,0,0,0,0,5.833v10A4.171,4.171,0,0,0,4.167,20H15.833A4.171,4.171,0,0,0,20,15.833v-10A4.171,4.171,0,0,0,15.833,1.667ZM4.167,3.333H15.833a2.5,2.5,0,0,1,2.5,2.5v.833H1.667V5.833A2.5,2.5,0,0,1,4.167,3.333Zm11.667,15H4.167a2.5,2.5,0,0,1-2.5-2.5v-7.5H18.333v7.5A2.5,2.5,0,0,1,15.833,18.333Z" transform="translate(1020 982)" fill="#515151"/>
  </g>
</svg>
