<svg xmlns="http://www.w3.org/2000/svg" xmlns:xlink="http://www.w3.org/1999/xlink" width="20" height="20" viewBox="0 0 20 20">
  <defs>
    <clipPath id="clip-path">
      <rect id="Rectangle_19129" data-name="Rectangle 19129" width="20" height="20" transform="translate(745 759)" fill="#008159" stroke="#707070" stroke-width="1"/>
    </clipPath>
  </defs>
  <g id="Mask_Group_15238" data-name="Mask Group 15238" transform="translate(-745 -759)" clip-path="url(#clip-path)">
    <path id="circle-xmark_14_" data-name="circle-xmark (14)" d="M10,0A10,10,0,1,0,20,10,10.011,10.011,0,0,0,10,0Zm3.089,11.911a.833.833,0,1,1-1.178,1.178L10,11.178,8.089,13.089a.833.833,0,0,1-1.178-1.178L8.822,10,6.911,8.089A.833.833,0,0,1,8.089,6.911L10,8.822l1.911-1.911a.833.833,0,1,1,1.178,1.178L11.178,10l1.911,1.911Z" transform="translate(745 759)" fill="#008159"/>
  </g>
</svg>
