<svg xmlns="http://www.w3.org/2000/svg" xmlns:xlink="http://www.w3.org/1999/xlink" width="80" height="80" viewBox="0 0 80 80">
  <defs>
    <clipPath id="clip-path">
      <rect id="Rectangle_18926" data-name="Rectangle 18926" width="80" height="80" transform="translate(315.349 330)" fill="#fff" stroke="#707070" stroke-width="1"/>
    </clipPath>
  </defs>
  <g id="Mask_Group_15119" data-name="Mask Group 15119" transform="translate(-315.349 -330)" clip-path="url(#clip-path)">
    <g id="image_1_" data-name="image (1)" transform="translate(315.004 330)">
      <path id="Path_43792" data-name="Path 43792" d="M0,16.069A16.069,16.069,0,0,1,16.069,0H64.276A16.069,16.069,0,0,1,80.345,16.069V64.276A16.069,16.069,0,0,1,64.276,80.345H16.069A16.069,16.069,0,0,1,0,64.276Z" fill="#28303f" opacity="0.4"/>
      <path id="Path_43793" data-name="Path 43793" d="M16.069,74.709H64.276A16.069,16.069,0,0,0,80.345,58.64V42.571l-11.807-8.5a16.069,16.069,0,0,0-20.139,1.1L31.945,49.975a16.069,16.069,0,0,1-20.139,1.1L0,42.571V58.64A16.069,16.069,0,0,0,16.069,74.709Z" transform="translate(0 5.635)" fill="#757575"/>
      <circle id="Ellipse_590" data-name="Ellipse 590" cx="10.043" cy="10.043" r="10.043" transform="translate(16.069 16.069)" fill="#757575"/>
    </g>
  </g>
</svg>
