<svg xmlns="http://www.w3.org/2000/svg" xmlns:xlink="http://www.w3.org/1999/xlink" width="24" height="24" viewBox="0 0 24 24">
  <defs>
    <filter id="Rectangle_2812" x="-9" y="-6" width="42" height="42" filterUnits="userSpaceOnUse">
      <feOffset dy="3" input="SourceAlpha"/>
      <feGaussianBlur stdDeviation="3" result="blur"/>
      <feFlood flood-opacity="0.161"/>
      <feComposite operator="in" in2="blur"/>
      <feComposite in="SourceGraphic"/>
    </filter>
    <clipPath id="clip-path">
      <g transform="matrix(1, 0, 0, 1, 0, 0)" filter="url(#Rectangle_2812)">
        <rect id="Rectangle_2812-2" data-name="Rectangle 2812" width="24" height="24" transform="translate(1178 401)" fill="#515151" stroke="#707070" stroke-width="1"/>
      </g>
    </clipPath>
  </defs>
  <g id="Mask_Group_15167" data-name="Mask Group 15167" transform="translate(-1178 -401)" clip-path="url(#clip-path)">
    <path id="cross-small" d="M34.325,11.442h0a1.907,1.907,0,0,0-2.7,0l-8.745,8.745-8.745-8.745a1.907,1.907,0,0,0-2.7,0h0a1.907,1.907,0,0,0,0,2.7l8.745,8.745-8.745,8.745a1.907,1.907,0,0,0,0,2.7h0a1.907,1.907,0,0,0,2.7,0l8.745-8.745,8.745,8.745a1.907,1.907,0,0,0,2.7,0h0a1.907,1.907,0,0,0,0-2.7L25.58,22.883l8.745-8.745A1.907,1.907,0,0,0,34.325,11.442Z" transform="translate(1167.117 390.116)" fill="#515151"/>
  </g>
</svg>
