<svg xmlns="http://www.w3.org/2000/svg" xmlns:xlink="http://www.w3.org/1999/xlink" width="24" height="24" viewBox="0 0 24 24">
  <defs>
    <clipPath id="clip-path">
      <rect id="Rectangle_18919" data-name="Rectangle 18919" width="24" height="24" transform="translate(172 34)" fill="#515151" stroke="#707070" stroke-width="1"/>
    </clipPath>
    <clipPath id="clip-path-2">
      <rect id="Rectangle_7" data-name="Rectangle 7" width="24" height="24" transform="translate(1548 88)" fill="#515151" stroke="#707070" stroke-width="1"/>
    </clipPath>
  </defs>
  <g id="Mask_Group_15219" data-name="Mask Group 15219" transform="translate(-172 -34)" clip-path="url(#clip-path)">
    <g id="Mask_Group_15155" data-name="Mask Group 15155" transform="translate(-1376 -54)" clip-path="url(#clip-path-2)">
      <path id="form" d="M16,.3a4.968,4.968,0,0,1,1.879,1.164l1.656,1.658A4.954,4.954,0,0,1,20.7,5H16ZM14,12H10a1,1,0,0,0,0,2h4a1,1,0,0,0,0-2Zm2-5a2,2,0,0,1-2-2V0H8A5.006,5.006,0,0,0,3,5V19a5.006,5.006,0,0,0,5,5h8a5.006,5.006,0,0,0,5-5V7Zm0,13H8a1,1,0,0,1,0-2h8a1,1,0,0,1,0,2Zm-2-4H10a3,3,0,0,1,0-6h4a3,3,0,0,1,0,6Z" transform="translate(1548 88)" fill="#515151"/>
    </g>
  </g>
</svg>
