<svg xmlns="http://www.w3.org/2000/svg" xmlns:xlink="http://www.w3.org/1999/xlink" width="24" height="24" viewBox="0 0 24 24">
  <defs>
    <clipPath id="clip-path">
      <rect id="Rectangle_18919" data-name="Rectangle 18919" width="24" height="24" transform="translate(172 34)" fill="#515151" stroke="#707070" stroke-width="1"/>
    </clipPath>
  </defs>
  <g id="Mask_Group_15246" data-name="Mask Group 15246" transform="translate(-172 -34)" clip-path="url(#clip-path)">
    <path id="user-gear_2_" data-name="user-gear (2)" d="M9,12a6,6,0,1,1,6-6A6.006,6.006,0,0,1,9,12Zm13.7,7.134-.974-.562a4.584,4.584,0,0,0,0-3.144l.974-.562a1,1,0,0,0-1-1.732l-.973.562A4.972,4.972,0,0,0,18,12.1V11a1,1,0,0,0-2,0v1.1A4.983,4.983,0,0,0,13.277,13.7l-.973-.562a1,1,0,0,0-1,1.732l.974.562a4.584,4.584,0,0,0,0,3.144l-.974.562a1,1,0,1,0,1,1.732l.973-.562A4.972,4.972,0,0,0,16,21.9V23a1,1,0,0,0,2,0V21.9A4.983,4.983,0,0,0,20.723,20.3l.973.562a1,1,0,1,0,1-1.732ZM17,18.5A1.5,1.5,0,1,1,18.5,17,1.5,1.5,0,0,1,17,18.5ZM8,17a8.965,8.965,0,0,1,.514-2.975A9,9,0,0,0,0,23a1,1,0,0,0,1,1H11.349A8.98,8.98,0,0,1,8,17Z" transform="translate(172.402 34)" fill="#515151"/>
  </g>
</svg>
