<svg xmlns="http://www.w3.org/2000/svg" xmlns:xlink="http://www.w3.org/1999/xlink" width="24" height="24" viewBox="0 0 24 24">
  <defs>
    <clipPath id="clip-path">
      <rect id="Rectangle_18919" data-name="Rectangle 18919" width="24" height="24" transform="translate(356 34)" fill="#515151" stroke="#707070" stroke-width="1"/>
    </clipPath>
  </defs>
  <g id="Mask_Group_15222" data-name="Mask Group 15222" transform="translate(-356 -34)" clip-path="url(#clip-path)">
    <path id="receipt_3_" data-name="receipt (3)" d="M8,0A5.006,5.006,0,0,0,3,5V23a1,1,0,0,0,1.564.825L6.67,22.386l2.106,1.439a1,1,0,0,0,1.13,0l2.1-1.439,2.1,1.439a1,1,0,0,0,1.131,0l2.1-1.438,2.1,1.437A1,1,0,0,0,21,23V5a5.006,5.006,0,0,0-5-5Zm6,14H8a1,1,0,1,1,0-2h6a1,1,0,0,1,0,2Zm3-5a1,1,0,0,1-1,1H8A1,1,0,0,1,8,8h8A1,1,0,0,1,17,9Z" transform="translate(356 34)" fill="#515151"/>
  </g>
</svg>
